<svg viewBox="0 0 12 12" width="168px" height="168px" xmlns="http://www.w3.org/2000/svg"><path fill-rule="evenodd" d="M 0,1 3,1 3,2 8,2 8,1 11,1 11,4 10,4 10,7 11,7 11,10 8,10 8,11 3,11 3,10 0,10 0,7 1,7 1,4 0,4z" fill="#EC9A3C"/><path fill-rule="evenodd" d="M 1,2 2,2 2,3 1,3z" fill="#ffffff"/><path fill-rule="evenodd" d="M 9,2 10,2 10,3 9,3z" fill="#ffffff"/><path fill-rule="evenodd" d="M 2,3 3,3 3,5 2,5z" fill="#ffffff"/><path fill-rule="evenodd" d="M 5,3 6,3 6,4 7,4 7,5 4,5 4,4 5,4z" fill="#ffffff"/><path fill-rule="evenodd" d="M 8,3 9,3 9,5 8,5z" fill="#ffffff"/><path fill-rule="evenodd" d="M 3,5 4,5 4,6 5,6 5,8 2,8 2,7 3,7z" fill="#ffffff"/><path fill-rule="evenodd" d="M 7,5 8,5 8,7 9,7 9,8 6,8 6,6 7,6z" fill="#ffffff"/><path fill-rule="evenodd" d="M 1,8 2,8 2,9 1,9z" fill="#ffffff"/><path fill-rule="evenodd" d="M 9,8 10,8 10,9 9,9z" fill="#ffffff"/><path fill-rule="evenodd" d="M 4,9 5,9 5,10 4,10z" fill="#ffffff"/><path fill-rule="evenodd" d="M 6,9 7,9 7,10 6,10z" fill="#ffffff"/></svg>